# xmcd
#
# Track frame offsets:
#   150
#   19091
#   43643
#   66180
#   80602
#   100539
#   121171
#   144922
#   164937
#   184808
#   198946
#   212471
#   239204
#   260828
#   275566
#
# Disc length: 3883 seconds
#
# Revision: 0
# Processed by: cddbd v1.5.2PL0 Copyright (c) Steve Scherf et al.
# Submitted via: uFREEDB ActiveX Control 1.5
#
DISCID=de0f290f
DTITLE=JOCA MARTINS - AO VIVO GRNDES SUCESSOS DA CALIFORNIA DA CANCAO NATIVA
DYEAR=1900
DGENRE=New Age
TTITLE0=TERTULIA
TTITLE1=FLORENCIO GUERRA
TTITLE2=GURI
TTITLE3=GAUDENCIO SETE LUAS
TTITLE4=NEGRO DA GAITA
TTITLE5=ENTARDECER
TTITLE6=TROPA DE OSSO
TTITLE7=NAO PODEMO S ENTREGA PROS HOME
TTITLE8=ESQUILADOR
TTITLE9=PEDRO GUARA
TTITLE10=EM CIMA DO LACO
TTITLE11=RECUERDOS DA 28
TTITLE12=VETERANO
TTITLE13=TERTULIA
TTITLE14=SE HOUVER CAVALO CRIOULO
EXTD=
EXTT0=
EXTT1=
EXTT2=
EXTT3=
EXTT4=
EXTT5=
EXTT6=
EXTT7=
EXTT8=
EXTT9=
EXTT10=
EXTT11=
EXTT12=
EXTT13=
EXTT14=
PLAYORDER=
